<svg width="48" height="48" viewBox="0 0 48 48" fill="none" xmlns="http://www.w3.org/2000/svg">
<g clip-path="url(#clip0_458_1629)">
<path d="M18.1118 26.3651C18.2824 23.323 19.7697 20.6349 22.0231 18.7356C24.2283 16.8684 27.19 15.7256 30.4414 15.7256C33.6768 15.7256 36.6385 16.8668 38.8436 18.7356C41.0971 20.6349 42.5779 23.323 42.755 26.3651C42.9256 29.4878 41.6685 32.4012 39.4714 34.5581C37.2179 36.7472 34.0309 38.1314 30.4414 38.1314C26.852 38.1314 23.6489 36.7568 21.4115 34.5581C19.2063 32.4012 17.9508 29.5039 18.1279 26.3812L18.1118 26.3651Z" fill="white"/>
<path d="M24.8557 25.9924C24.9434 24.4291 25.7077 23.0478 26.8657 22.0717C27.9989 21.1122 29.5209 20.5249 31.1918 20.5249C32.8544 20.5249 34.3764 21.1114 35.5096 22.0717C36.6676 23.0478 37.4286 24.4291 37.5196 25.9924C37.6073 27.5971 36.9612 29.0943 35.8322 30.2027C34.6741 31.3277 33.0364 32.039 31.1918 32.039C29.3472 32.039 27.7011 31.3326 26.5514 30.2027C25.4182 29.0943 24.773 27.6054 24.864 26.0007L24.8557 25.9924Z" fill="#265787"/>
<path d="M14.9297 29.3012C14.9404 29.9133 15.1356 31.1044 15.4285 32.0308C16.0439 33.9995 17.0911 35.8192 18.5386 37.4157C20.0275 39.0617 21.8638 40.3852 23.9813 41.3282C26.2064 42.3125 28.6217 42.8171 31.128 42.8171C33.6344 42.8137 36.0497 42.3009 38.2747 41.3034C40.3923 40.3521 42.2286 39.0287 43.7175 37.3743C45.1733 35.7614 46.2155 33.9416 46.8276 31.9729C47.1378 30.9803 47.3339 29.9712 47.4124 28.962C47.4894 27.9694 47.4571 26.9686 47.3157 25.9677C47.0394 24.0239 46.3644 22.1958 45.3305 20.5415C44.3875 19.0113 43.1633 17.6795 41.7075 16.5546L41.7108 16.5521L27.07 5.30266C27.0567 5.29273 27.046 5.28197 27.0319 5.27287C26.0724 4.53504 24.4512 4.53753 23.4007 5.27701C22.3336 6.02477 22.2096 7.26221 23.1608 8.03974L23.1567 8.04388L29.2694 13.0151L10.6582 13.035H10.6334C9.09486 13.0366 7.61423 14.0441 7.32473 15.3263C7.02364 16.6249 8.06917 17.7085 9.67387 17.7085L9.6714 17.7143L19.1011 17.6961L2.22691 30.5998C2.20541 30.6156 2.18224 30.6321 2.16239 30.6478C0.574236 31.8637 0.0613923 33.8903 1.06226 35.1641C2.07967 36.4628 4.23857 36.471 5.84327 35.1716L15.0248 27.6444C15.0248 27.6444 14.8908 28.6618 14.9016 29.2656L14.9297 29.3012ZM38.5866 32.7008C36.6924 34.6281 34.0372 35.7282 31.1752 35.7282C28.3049 35.7332 25.6497 34.653 23.7555 32.7257C22.8291 31.7827 22.1508 30.7074 21.729 29.5576C21.3179 28.4244 21.1582 27.225 21.2641 26.0173C21.3642 24.8345 21.7166 23.7013 22.2815 22.6839C22.8341 21.683 23.5967 20.7731 24.5314 20.0039C26.376 18.5067 28.7169 17.6878 31.1653 17.6878C33.622 17.6845 35.9628 18.4893 37.8074 19.9873C38.7421 20.7516 39.5031 21.6582 40.0573 22.6591C40.6222 23.6765 40.9754 24.8014 41.0747 25.9925C41.1789 27.2002 41.0193 28.3996 40.6082 29.5328C40.188 30.6908 39.5081 31.7661 38.5816 32.7091L38.5866 32.7008Z" fill="#EA7600"/>
</g>
<defs>
<clipPath id="clip0_458_1629">
<rect width="48" height="39.2486" fill="white" transform="translate(0 4.37573)"/>
</clipPath>
</defs>
</svg>
