<svg width="48" height="48" viewBox="0 0 48 48" fill="none" xmlns="http://www.w3.org/2000/svg">
<path d="M7.51404 31.2615C11.4293 31.2615 14.6032 28.0876 14.6032 24.1722C14.6032 20.2569 11.4293 17.083 7.51404 17.083C3.59876 17.083 0.424805 20.2569 0.424805 24.1722C0.424805 28.0876 3.59876 31.2615 7.51404 31.2615Z" fill="#7856FF"/>
<path d="M28.7227 29.1179C31.4928 29.1179 33.7383 26.8727 33.7383 24.1033C33.7383 21.3335 31.4928 19.0884 28.7227 19.0884C25.9525 19.0884 23.707 21.3335 23.707 24.1033C23.707 26.8727 25.9525 29.1179 28.7227 29.1179Z" fill="#7856FF"/>
<path d="M45.2656 26.5907C46.6165 26.5907 47.7118 25.4954 47.7118 24.1445C47.7118 22.7937 46.6165 21.6987 45.2656 21.6987C43.9148 21.6987 42.8198 22.7937 42.8198 24.1445C42.8198 25.4954 43.9148 26.5907 45.2656 26.5907Z" fill="#7856FF"/>
</svg>
