<svg width="48" height="48" viewBox="0 0 48 48" fill="none" xmlns="http://www.w3.org/2000/svg">
<g clip-path="url(#clip0_459_1731)">
<path d="M23.9999 28.2782C26.3628 28.2782 28.2782 26.3628 28.2782 23.9999C28.2782 21.6371 26.3628 19.7217 23.9999 19.7217C21.6371 19.7217 19.7217 21.6371 19.7217 23.9999C19.7217 26.3628 21.6371 28.2782 23.9999 28.2782Z" fill="#61DAFB"/>
<path d="M24 32.7651C36.6785 32.7651 46.9565 28.8407 46.9565 23.9998C46.9565 19.1589 36.6785 15.2346 24 15.2346C11.3214 15.2346 1.04346 19.1589 1.04346 23.9998C1.04346 28.8407 11.3214 32.7651 24 32.7651Z" stroke="#61DAFB" stroke-width="2"/>
<path d="M16.4093 28.3825C22.7485 39.3624 31.2861 46.3012 35.4784 43.8808C39.6707 41.4603 37.9303 30.5972 31.5911 19.6173C25.2518 8.63732 16.7142 1.69849 12.5219 4.11894C8.32955 6.53938 10.07 17.4025 16.4093 28.3825Z" stroke="#61DAFB" stroke-width="2"/>
<path d="M16.4093 19.6172C10.07 30.5971 8.32958 41.4603 12.5219 43.8807C16.7143 46.3012 25.2518 39.3623 31.5911 28.3824C37.9303 17.4025 39.6708 6.5393 35.4784 4.11886C31.2861 1.69841 22.7485 8.63724 16.4093 19.6172Z" stroke="#61DAFB" stroke-width="2"/>
</g>
<defs>
<clipPath id="clip0_459_1731">
<rect width="48" height="42.7064" fill="white" transform="translate(0 2.64673)"/>
</clipPath>
</defs>
</svg>
