<svg width="48" height="48" viewBox="0 0 48 48" fill="none" xmlns="http://www.w3.org/2000/svg">
<g clip-path="url(#clip0_459_1722)">
<path d="M13.6419 20.1157C13.6419 20.6999 13.705 21.1736 13.8155 21.521C13.9419 21.8683 14.0998 22.2473 14.3208 22.6578C14.3998 22.7841 14.4313 22.9104 14.4313 23.021C14.4313 23.1789 14.3366 23.3368 14.1313 23.4947L13.1366 24.1578C12.9945 24.2525 12.8524 24.2999 12.7261 24.2999C12.5682 24.2999 12.4103 24.221 12.2524 24.0789C12.0313 23.842 11.8419 23.5894 11.684 23.3368C11.5261 23.0683 11.3682 22.7683 11.1945 22.4052C9.96292 23.8578 8.41555 24.5841 6.55239 24.5841C5.22607 24.5841 4.16818 24.2052 3.3945 23.4473C2.62081 22.6894 2.22607 21.6789 2.22607 20.4157C2.22607 19.0736 2.69976 17.9841 3.66292 17.1631C4.62607 16.342 5.90502 15.9315 7.53134 15.9315C8.06818 15.9315 8.62081 15.9789 9.20502 16.0578C9.78923 16.1368 10.3892 16.2631 11.0208 16.4052V15.2525C11.0208 14.0525 10.7682 13.2157 10.2787 12.7262C9.77344 12.2368 8.92081 11.9999 7.70502 11.9999C7.15239 11.9999 6.58397 12.0631 5.99976 12.2052C5.41555 12.3473 4.84713 12.521 4.2945 12.742C4.04186 12.8525 3.85239 12.9157 3.74186 12.9473C3.63134 12.9789 3.55239 12.9946 3.48923 12.9946C3.26818 12.9946 3.15765 12.8368 3.15765 12.5052V11.7315C3.15765 11.4789 3.18923 11.2894 3.26818 11.1789C3.34713 11.0683 3.48923 10.9578 3.71028 10.8473C4.26292 10.5631 4.92607 10.3262 5.69976 10.1368C6.47344 9.93149 7.29449 9.83675 8.16292 9.83675C10.0419 9.83675 11.4155 10.2631 12.2998 11.1157C13.1682 11.9683 13.6103 13.2631 13.6103 14.9999V20.1157H13.6419ZM7.23134 22.5157C7.75239 22.5157 8.28923 22.421 8.85765 22.2315C9.42607 22.042 9.93134 21.6947 10.3577 21.221C10.6103 20.921 10.7998 20.5894 10.8945 20.2104C10.9892 19.8315 11.0524 19.3736 11.0524 18.8368V18.1736C10.5945 18.0631 10.105 17.9683 9.59976 17.9052C9.09449 17.842 8.60502 17.8104 8.11555 17.8104C7.05765 17.8104 6.28397 18.0157 5.76292 18.442C5.24186 18.8683 4.98923 19.4683 4.98923 20.2578C4.98923 20.9999 5.17871 21.5525 5.57344 21.9315C5.95239 22.3262 6.50502 22.5157 7.23134 22.5157ZM19.9103 24.221C19.6261 24.221 19.4366 24.1736 19.3103 24.0631C19.184 23.9683 19.0734 23.7473 18.9787 23.4473L15.2682 11.242C15.1734 10.9262 15.1261 10.721 15.1261 10.6104C15.1261 10.3578 15.2524 10.2157 15.505 10.2157H17.0524C17.3524 10.2157 17.5577 10.2631 17.6682 10.3736C17.7945 10.4683 17.8892 10.6894 17.984 10.9894L20.6366 21.442L23.0998 10.9894C23.1787 10.6736 23.2734 10.4683 23.3998 10.3736C23.5261 10.2789 23.7471 10.2157 24.0313 10.2157H25.2945C25.5945 10.2157 25.7998 10.2631 25.9261 10.3736C26.0524 10.4683 26.1629 10.6894 26.2261 10.9894L28.7208 21.5683L31.4524 10.9894C31.5471 10.6736 31.6576 10.4683 31.7682 10.3736C31.8945 10.2789 32.0998 10.2157 32.384 10.2157H33.8524C34.105 10.2157 34.2471 10.342 34.2471 10.6104C34.2471 10.6894 34.2313 10.7683 34.2155 10.8631C34.1998 10.9578 34.1682 11.0841 34.105 11.2578L30.2998 23.4631C30.205 23.7789 30.0945 23.9841 29.9682 24.0789C29.8419 24.1736 29.6366 24.2368 29.3682 24.2368H28.0103C27.7103 24.2368 27.505 24.1894 27.3787 24.0789C27.2524 23.9683 27.1419 23.7631 27.0787 23.4473L24.6313 13.2631L22.1998 23.4315C22.1208 23.7473 22.0261 23.9525 21.8998 24.0631C21.7734 24.1736 21.5524 24.221 21.2682 24.221H19.9103ZM40.1998 24.6473C39.3787 24.6473 38.5576 24.5525 37.7682 24.3631C36.9787 24.1736 36.3629 23.9683 35.9524 23.7315C35.6998 23.5894 35.5261 23.4315 35.4629 23.2894C35.3998 23.1473 35.3682 22.9894 35.3682 22.8473V22.042C35.3682 21.7104 35.4945 21.5525 35.7313 21.5525C35.8261 21.5525 35.9208 21.5683 36.0155 21.5999C36.1103 21.6315 36.2524 21.6947 36.4103 21.7578C36.9471 21.9947 37.5313 22.1841 38.1471 22.3104C38.7787 22.4368 39.3945 22.4999 40.0261 22.4999C41.0208 22.4999 41.7945 22.3262 42.3313 21.9789C42.8682 21.6315 43.1524 21.1262 43.1524 20.4789C43.1524 20.0368 43.0103 19.6736 42.7261 19.3736C42.4419 19.0736 41.905 18.8052 41.1313 18.5525L38.8419 17.842C37.6892 17.4789 36.8366 16.942 36.3155 16.2315C35.7945 15.5368 35.5261 14.7631 35.5261 13.942C35.5261 13.2789 35.6682 12.6946 35.9524 12.1894C36.2366 11.6841 36.6155 11.242 37.0892 10.8946C37.5629 10.5315 38.0998 10.2631 38.7313 10.0736C39.3629 9.88412 40.0261 9.80518 40.7208 9.80518C41.0682 9.80518 41.4313 9.82097 41.7787 9.86833C42.1419 9.9157 42.4734 9.97886 42.805 10.042C43.1208 10.121 43.4208 10.1999 43.705 10.2946C43.9892 10.3894 44.2103 10.4841 44.3682 10.5789C44.5892 10.7052 44.7471 10.8315 44.8419 10.9736C44.9366 11.0999 44.984 11.2736 44.984 11.4946V12.2368C44.984 12.5683 44.8576 12.742 44.6208 12.742C44.4945 12.742 44.2892 12.6789 44.0208 12.5525C43.1208 12.142 42.1103 11.9368 40.9892 11.9368C40.0892 11.9368 39.3787 12.0789 38.8892 12.3789C38.3998 12.6789 38.1471 13.1368 38.1471 13.7841C38.1471 14.2262 38.305 14.6052 38.6208 14.9052C38.9366 15.2052 39.5208 15.5052 40.3576 15.7736L42.5998 16.4841C43.7366 16.8473 44.5576 17.3525 45.0471 17.9999C45.5366 18.6473 45.7734 19.3894 45.7734 20.2104C45.7734 20.8894 45.6313 21.5052 45.3629 22.042C45.0787 22.5789 44.6998 23.0525 44.2103 23.4315C43.7208 23.8262 43.1366 24.1104 42.4576 24.3157C41.7471 24.5368 41.005 24.6473 40.1998 24.6473Z" fill="#252F3E"/>
<path fill-rule="evenodd" clip-rule="evenodd" d="M43.184 32.321C37.9893 36.1579 30.4419 38.1947 23.9524 38.1947C14.8577 38.1947 6.66297 34.8316 0.473502 29.2421C-0.0159715 28.8 0.426134 28.2 1.01034 28.5473C7.70508 32.4316 15.963 34.7842 24.5051 34.7842C30.2682 34.7842 36.5998 33.5842 42.4261 31.121C43.2945 30.7263 44.0366 31.6895 43.184 32.321Z" fill="#FF9900"/>
<path fill-rule="evenodd" clip-rule="evenodd" d="M45.3472 29.8578C44.6841 29.0051 40.9577 29.4472 39.2683 29.6525C38.763 29.7157 38.6841 29.2736 39.142 28.942C42.1104 26.8578 46.9893 27.4578 47.5577 28.1525C48.1262 28.863 47.3999 33.742 44.6209 36.0788C44.1946 36.442 43.7841 36.2525 43.9735 35.7788C44.6051 34.2157 46.0104 30.6946 45.3472 29.8578Z" fill="#FF9900"/>
</g>
<defs>
<clipPath id="clip0_459_1722">
<rect width="48" height="28.7368" fill="white" transform="translate(0 9.63159)"/>
</clipPath>
</defs>
</svg>
