<svg width="52" height="48" viewBox="0 0 52 48" fill="none" xmlns="http://www.w3.org/2000/svg">
<path d="M8.13996 31.8663C12.3815 31.8663 15.8199 28.428 15.8199 24.1863C15.8199 19.9447 12.3815 16.5063 8.13996 16.5063C3.89841 16.5063 0.459961 19.9447 0.459961 24.1863C0.459961 28.428 3.89841 31.8663 8.13996 31.8663Z" fill="#7856FF"/>
<path d="M31.1162 29.544C34.1172 29.544 36.5498 27.1117 36.5498 24.1115C36.5498 21.111 34.1172 18.6787 31.1162 18.6787C28.1153 18.6787 25.6826 21.111 25.6826 24.1115C25.6826 27.1117 28.1153 29.544 31.1162 29.544Z" fill="#7856FF"/>
<path d="M49.0378 26.8064C50.5012 26.8064 51.6878 25.6199 51.6878 24.1564C51.6878 22.693 50.5012 21.5068 49.0378 21.5068C47.5744 21.5068 46.3882 22.693 46.3882 24.1564C46.3882 25.6199 47.5744 26.8064 49.0378 26.8064Z" fill="#7856FF"/>
</svg>
