<svg width="48" height="48" viewBox="0 0 48 48" fill="none" xmlns="http://www.w3.org/2000/svg">
<path d="M7.19609 31.1959C11.1704 31.1959 14.3921 27.9742 14.3921 23.9998C14.3921 20.0254 11.1704 16.8037 7.19609 16.8037C3.2218 16.8037 0 20.0254 0 23.9998C0 27.9742 3.2218 31.1959 7.19609 31.1959Z" fill="#7856FF"/>
<path d="M28.7246 29.0199C31.5365 29.0199 33.8159 26.7409 33.8159 23.9297C33.8159 21.1182 31.5365 18.8392 28.7246 18.8392C25.9128 18.8392 23.6334 21.1182 23.6334 23.9297C23.6334 26.7409 25.9128 29.0199 28.7246 29.0199Z" fill="#7856FF"/>
<path d="M45.517 26.4548C46.8882 26.4548 48 25.343 48 23.9718C48 22.6006 46.8882 21.4891 45.517 21.4891C44.1458 21.4891 43.0343 22.6006 43.0343 23.9718C43.0343 25.343 44.1458 26.4548 45.517 26.4548Z" fill="#7856FF"/>
</svg>
