<svg width="48" height="48" viewBox="0 0 48 48" fill="none" xmlns="http://www.w3.org/2000/svg">
<g clip-path="url(#clip0_452_1578)">
<path d="M16.0019 48C20.417 48 24.0004 44.416 24.0004 40V32H16.0019C11.5867 32 8.00342 35.584 8.00342 40C8.00342 44.416 11.5867 48 16.0019 48Z" fill="#0ACF83"/>
<path d="M8.00342 24C8.00342 19.584 11.5867 16 16.0019 16H24.0004V32H16.0019C11.5867 32 8.00342 28.416 8.00342 24Z" fill="#A259FF"/>
<path d="M8.00342 7.99998C8.00342 3.58399 11.5867 0 16.0019 0H24.0004V16H16.0019C11.5867 16 8.00342 12.416 8.00342 7.99998Z" fill="#F24E1E"/>
<path d="M24 0H31.9984C36.4135 0 39.9968 3.58399 39.9968 7.99998C39.9968 12.416 36.4135 16 31.9984 16H24V0Z" fill="#FF7262"/>
<path d="M39.9968 24C39.9968 28.416 36.4135 32 31.9984 32C27.5833 32 24 28.416 24 24C24 19.584 27.5833 16 31.9984 16C36.4135 16 39.9968 19.584 39.9968 24Z" fill="#1ABCFE"/>
</g>
<defs>
<clipPath id="clip0_452_1578">
<rect width="32" height="48" fill="white" transform="translate(8)"/>
</clipPath>
</defs>
</svg>
