<svg width="48" height="48" viewBox="0 0 48 48" fill="none" xmlns="http://www.w3.org/2000/svg">
<g clip-path="url(#clip0_458_1614)">
<path d="M41.6559 9.55433L27.4481 0.962472C26.4066 0.33345 25.2131 0.000976562 23.9965 0.000976562C22.7799 0.000976562 21.5863 0.33345 20.5449 0.962472L6.5959 9.38182C5.52976 10.0254 4.64798 10.9335 4.03601 12.0181C3.42405 13.1028 3.10267 14.3271 3.10303 15.5724V20.6598C3.10303 20.7344 3.11777 20.8083 3.14642 20.8771C3.17507 20.946 3.21706 21.0085 3.26996 21.061C3.32286 21.1136 3.38564 21.1552 3.45467 21.1834C3.52371 21.2116 3.59764 21.2259 3.67221 21.2254L9.12596 21.1865C9.27563 21.1854 9.41876 21.125 9.52397 21.0185C9.62918 20.912 9.6879 20.7682 9.68725 20.6185L9.67935 18.5271C9.67653 17.834 9.85691 17.1526 10.2022 16.5517C10.5475 15.9508 11.0455 15.4518 11.6457 15.1053L22.4918 8.84847C22.9805 8.56645 23.535 8.41839 24.0992 8.41925C24.6634 8.4201 25.2174 8.56984 25.7053 8.85333L36.7336 15.2559C36.907 15.3567 37.0509 15.5012 37.1508 15.6751C37.2506 15.849 37.3031 16.0461 37.3028 16.2466C37.3024 16.4472 37.2494 16.6441 37.149 16.8177C37.0486 16.9913 36.9043 17.1354 36.7306 17.2356L32.1692 19.8683C31.9577 19.9904 31.7176 20.0541 31.4734 20.0529C31.2292 20.0517 30.9897 19.9857 30.7794 19.8617L25.4872 16.7411C25.096 16.5105 24.651 16.3872 24.1969 16.3837C23.7429 16.3802 23.2959 16.4966 22.9012 16.7211L18.5221 19.2117C17.9618 19.5306 17.495 19.9908 17.1681 20.5464C16.8412 21.1021 16.6656 21.7337 16.659 22.3783L16.6044 27.6632C16.6002 28.0568 16.7005 28.4445 16.8949 28.7868C17.0893 29.1292 17.371 29.4138 17.7111 29.6119L22.1954 32.224C22.7652 32.5556 23.4122 32.7316 24.0715 32.7344C24.7308 32.7372 25.3793 32.5666 25.9519 32.2398L30.6998 29.5305C30.9841 29.3678 31.3057 29.2815 31.6332 29.28C31.9608 29.2785 32.2832 29.3619 32.5689 29.522L36.309 31.6226C36.5283 31.7459 36.7111 31.925 36.8387 32.1418C36.9664 32.3586 37.0344 32.6053 37.0358 32.8568C37.0372 33.1084 36.972 33.3559 36.8468 33.5741C36.7216 33.7923 36.5409 33.9735 36.323 34.0992L27.4438 39.2255C26.4215 39.8156 25.262 40.1267 24.0816 40.1275C22.9012 40.1284 21.7412 39.819 20.7181 39.2304L11.1312 33.7135C10.7084 33.4702 10.3568 33.1202 10.1116 32.6985C9.86644 32.2768 9.73623 31.7982 9.73402 31.3104L9.72005 28.1297C9.71973 28.0554 9.70475 27.9818 9.67596 27.9132C9.64717 27.8446 9.60513 27.7824 9.55226 27.7301C9.49939 27.6778 9.43672 27.6364 9.36785 27.6084C9.29897 27.5803 9.22523 27.5661 9.15086 27.5666L3.66614 27.6061C3.51684 27.6071 3.37399 27.6671 3.26881 27.7731C3.16363 27.879 3.10469 28.0223 3.10485 28.1717V34.6429C3.10485 35.9422 3.76819 37.1438 4.844 37.7944L19.7674 46.8169C21.046 47.5895 22.5114 47.9979 24.0053 47.9979C25.4992 47.9979 26.9646 47.5895 28.2432 46.8169L42.8683 37.9894C44.124 37.2306 44.8979 35.8286 44.8972 34.3106V15.2972C44.8968 14.142 44.5983 13.0064 44.0304 12.0003C43.4626 10.9942 42.6447 10.1517 41.6559 9.55433V9.55433ZM27.3837 26.1081C27.3851 26.2866 27.3395 26.4624 27.2514 26.6177C27.1634 26.7729 27.0359 26.9023 26.8819 26.9926L24.6343 28.312C24.4804 28.4023 24.3054 28.4506 24.1269 28.4519C23.9484 28.4531 23.7727 28.4074 23.6174 28.3193L21.3504 27.0315C21.1952 26.9432 21.066 26.8157 20.9757 26.6618C20.8854 26.5078 20.8372 26.3328 20.8359 26.1543L20.8171 23.5477C20.8158 23.3692 20.8616 23.1934 20.9498 23.0382C21.038 22.8829 21.1655 22.7536 21.3194 22.6632L23.567 21.3445C23.7209 21.254 23.896 21.2057 24.0745 21.2044C24.253 21.2031 24.4287 21.2489 24.5839 21.3372L26.8503 22.6238C27.0055 22.7121 27.1347 22.8395 27.2251 22.9935C27.3155 23.1474 27.3639 23.3224 27.3654 23.5009L27.3837 26.1081Z" fill="url(#paint0_linear_458_1614)"/>
</g>
<defs>
<linearGradient id="paint0_linear_458_1614" x1="3.03105" y1="24.1495" x2="44.9554" y2="23.8495" gradientUnits="userSpaceOnUse">
<stop stop-color="#4E4ED6"/>
<stop offset="0.65" stop-color="#8258DC"/>
<stop offset="1" stop-color="#AD3BFF"/>
</linearGradient>
<clipPath id="clip0_458_1614">
<rect width="41.7942" height="48" fill="white" transform="translate(3.10303)"/>
</clipPath>
</defs>
</svg>
