<svg width="48" height="48" viewBox="0 0 48 48" fill="none" xmlns="http://www.w3.org/2000/svg">
<g clip-path="url(#clip0_458_1695)">
<path d="M8.5 0.600098H39.5C44.2 0.600098 48 4.4001 48 9.1001V38.9001C48 43.6001 44.2 47.4001 39.5 47.4001H8.5C3.8 47.4001 0 43.6001 0 38.9001V9.1001C0 4.4001 3.8 0.600098 8.5 0.600098Z" fill="#330000"/>
<path d="M23.1998 28.6H15.7598L14.2398 33.3C14.1998 33.48 14.0398 33.6 13.8598 33.58H10.0998C9.87982 33.58 9.81982 33.46 9.87982 33.22L16.3198 14.68C16.3798 14.48 16.4398 14.26 16.5198 14.02C16.5998 13.6 16.6398 13.16 16.6398 12.72C16.6198 12.62 16.6998 12.52 16.7998 12.5H16.8598H21.9798C22.1398 12.5 22.2198 12.56 22.2398 12.66L29.5398 33.26C29.5998 33.48 29.5398 33.58 29.3398 33.58H25.1598C25.0198 33.6 24.8798 33.5 24.8398 33.36L23.1998 28.6V28.6ZM16.9198 24.54H21.9998C21.8798 24.12 21.7198 23.62 21.5398 23.1C21.3598 22.56 21.1798 21.98 20.9998 21.38C20.7998 20.76 20.6198 20.16 20.4198 19.54C20.2198 18.92 20.0398 18.34 19.8798 17.76C19.7198 17.2 19.5798 16.68 19.4398 16.2H19.3998C19.2198 17.06 18.9998 17.92 18.7198 18.78C18.4198 19.74 18.1198 20.74 17.7998 21.74C17.5198 22.76 17.2198 23.7 16.9198 24.54V24.54Z" fill="#FF9A00"/>
<path d="M33.9997 16C33.3397 16.02 32.6997 15.76 32.2197 15.3C31.7597 14.8 31.5197 14.14 31.5397 13.46C31.5197 12.78 31.7797 12.14 32.2597 11.68C32.7397 11.22 33.3797 10.98 34.0397 10.98C34.8197 10.98 35.4197 11.22 35.8597 11.68C36.2997 12.16 36.5397 12.8 36.5197 13.46C36.5397 14.14 36.2997 14.8 35.8197 15.3C35.3597 15.78 34.6797 16.04 33.9997 16ZM31.7597 33.36V17.96C31.7597 17.76 31.8397 17.68 32.0197 17.68H35.9797C36.1597 17.68 36.2397 17.78 36.2397 17.96V33.36C36.2397 33.58 36.1597 33.68 35.9797 33.68H32.0597C31.8597 33.68 31.7597 33.56 31.7597 33.36V33.36Z" fill="#FF9A00"/>
</g>
<defs>
<clipPath id="clip0_458_1695">
<rect width="48" height="46.8" fill="white" transform="translate(0 0.600098)"/>
</clipPath>
</defs>
</svg>
