<svg width="48" height="48" viewBox="0 0 48 48" fill="none" xmlns="http://www.w3.org/2000/svg">
<g clip-path="url(#clip0_458_1612)">
<path d="M34.4537 18.9905C31.9108 7.77281 26.6109 4.78652 25.2589 2.67551C24.7014 1.74556 24.2076 0.778924 23.7807 -0.217773C23.7093 0.778766 23.5781 1.40659 22.731 2.1623C21.0303 3.6787 13.807 9.56492 13.1991 22.3107C12.6328 34.1944 21.9355 41.5223 23.1645 42.2797C24.1096 42.7447 25.2606 42.2896 25.822 41.8628C30.3064 38.7851 36.4335 30.5803 34.4587 18.9905" fill="#10AA50"/>
<path d="M24.166 35.9521C23.9318 38.8936 23.764 40.6027 23.1694 42.2835C23.1694 42.2835 23.5597 45.0838 23.8338 48.0501H24.8038C25.0351 45.9613 25.3884 43.8877 25.8618 41.84C24.6061 41.2222 24.2141 38.5332 24.166 35.9521Z" fill="#B8C4C2"/>
<path d="M25.8604 41.8417C24.5914 41.2554 24.2244 38.5099 24.1679 35.9521C24.4817 31.7329 24.5732 27.5 24.4419 23.2711C24.3755 21.0522 24.4735 2.71917 23.8955 0.0351562C24.2909 0.944204 24.7464 1.82588 25.2591 2.67433C26.6111 4.78699 31.9127 7.77329 34.4538 18.991C36.4336 30.5608 30.3398 38.7441 25.8604 41.8417Z" fill="#12924F"/>
</g>
<defs>
<clipPath id="clip0_458_1612">
<rect width="21.7578" height="48" fill="white" transform="translate(13.1211)"/>
</clipPath>
</defs>
</svg>
