<svg width="48" height="48" viewBox="0 0 48 48" fill="none" xmlns="http://www.w3.org/2000/svg">
<g clip-path="url(#clip0_458_1613)">
<path d="M11.3486 17.1898H20.3826V17.9044H12.1767V23.2825H19.8933V23.9971H12.1767V29.9018H20.4767V30.6164H11.3486V17.1898ZM21.1919 17.1898H22.1517L26.4052 23.0945L30.7528 17.1898L36.6663 9.68945L26.951 23.7151L31.9574 30.6164H30.9599L26.4052 24.3356L21.8318 30.6164H20.8531L25.8971 23.7151L21.1919 17.1898ZM32.315 17.9044V17.1898H42.6099V17.9044H37.8671V30.6164H37.039V17.9044H32.315Z" fill="black"/>
<path d="M0.046875 17.1899H1.08202L15.356 38.447L9.45725 30.6166L0.91263 18.2054L0.874988 30.6166H0.046875V17.1899Z" fill="black"/>
<path d="M42.5266 29.6862C42.6978 29.6862 42.8226 29.5557 42.8226 29.3871C42.8226 29.2185 42.6978 29.088 42.5266 29.088C42.3574 29.088 42.2305 29.2185 42.2305 29.3871C42.2305 29.5557 42.3574 29.6862 42.5266 29.6862ZM43.3403 28.8994C43.3403 29.3971 43.7008 29.7223 44.2265 29.7223C44.7864 29.7223 45.1248 29.3871 45.1248 28.805V26.7558H44.6736V28.803C44.6736 29.1262 44.5105 29.2988 44.2225 29.2988C43.9647 29.2988 43.7894 29.1382 43.7834 28.8994H43.3403ZM45.715 28.8733C45.7472 29.3911 46.1802 29.7223 46.8248 29.7223C47.5136 29.7223 47.9446 29.3751 47.9446 28.8211C47.9446 28.3856 47.6989 28.1447 47.1027 28.0062L46.7825 27.9279C46.4038 27.8396 46.2507 27.7212 46.2507 27.5145C46.2507 27.2536 46.4884 27.083 46.8449 27.083C47.1833 27.083 47.4169 27.2495 47.4592 27.5165H47.8983C47.8721 27.0288 47.4411 26.6855 46.851 26.6855C46.2165 26.6855 45.7935 27.0288 45.7935 27.5446C45.7935 27.9701 46.0332 28.223 46.5589 28.3454L46.9335 28.4357C47.3182 28.5261 47.4874 28.6585 47.4874 28.8793C47.4874 29.1362 47.2216 29.3229 46.859 29.3229C46.4703 29.3229 46.2004 29.1483 46.1621 28.8733H45.715Z" fill="black"/>
</g>
<defs>
<clipPath id="clip0_458_1613">
<rect width="48" height="28.7536" fill="white" transform="translate(0 9.62305)"/>
</clipPath>
</defs>
</svg>
