<svg width="48" height="48" viewBox="0 0 48 48" fill="none" xmlns="http://www.w3.org/2000/svg">
<g clip-path="url(#clip0_458_1679)">
<path d="M8.5 0.600098H39.5C44.2 0.600098 48 4.4001 48 9.1001V38.9001C48 43.6001 44.2 47.4001 39.5 47.4001H8.5C3.8 47.4001 0 43.6001 0 38.9001V9.1001C0 4.4001 3.8 0.600098 8.5 0.600098Z" fill="#001E36"/>
<path d="M10.7998 33.42V12.84C10.7998 12.7 10.8598 12.62 10.9998 12.62C11.3398 12.62 11.6598 12.62 12.1198 12.6C12.5998 12.58 13.0998 12.58 13.6398 12.56C14.1798 12.54 14.7598 12.54 15.3798 12.52C15.9998 12.5 16.5998 12.5 17.1998 12.5C18.8398 12.5 20.1998 12.7 21.3198 13.12C22.3198 13.46 23.2398 14.02 23.9998 14.76C24.6398 15.4 25.1398 16.18 25.4598 17.04C25.7598 17.88 25.9198 18.74 25.9198 19.64C25.9198 21.36 25.5198 22.78 24.7198 23.9C23.9198 25.02 22.7998 25.86 21.4998 26.34C20.1398 26.84 18.6398 27.02 16.9998 27.02C16.5198 27.02 16.1998 27.02 15.9998 27C15.7998 26.98 15.5198 26.98 15.1398 26.98V33.4C15.1598 33.54 15.0598 33.66 14.9198 33.68C14.8998 33.68 14.8798 33.68 14.8398 33.68H11.0398C10.8798 33.68 10.7998 33.6 10.7998 33.42ZM15.1598 16.48V23.2C15.4398 23.22 15.6998 23.24 15.9398 23.24H16.9998C17.7798 23.24 18.5598 23.12 19.2998 22.88C19.9398 22.7 20.4998 22.32 20.9398 21.82C21.3598 21.32 21.5598 20.64 21.5598 19.76C21.5798 19.14 21.4198 18.52 21.0998 17.98C20.7598 17.46 20.2798 17.06 19.6998 16.84C18.9598 16.54 18.1598 16.42 17.3398 16.44C16.8198 16.44 16.3598 16.44 15.9798 16.46C15.5798 16.44 15.2998 16.46 15.1598 16.48Z" fill="#31A8FF"/>
<path d="M38.3997 21.98C37.7997 21.66 37.1597 21.44 36.4797 21.3C35.7397 21.14 34.9997 21.04 34.2397 21.04C33.8397 21.02 33.4197 21.08 33.0397 21.18C32.7797 21.24 32.5597 21.38 32.4197 21.58C32.3197 21.74 32.2597 21.94 32.2597 22.12C32.2597 22.3 32.3397 22.48 32.4597 22.64C32.6397 22.86 32.8797 23.04 33.1397 23.18C33.5997 23.42 34.0797 23.64 34.5597 23.84C35.6397 24.2 36.6797 24.7 37.6397 25.3C38.2997 25.72 38.8397 26.28 39.2197 26.96C39.5397 27.6 39.6997 28.3 39.6797 29.02C39.6997 29.96 39.4197 30.9 38.8997 31.68C38.3397 32.48 37.5597 33.1 36.6597 33.46C35.6797 33.88 34.4797 34.1 33.0397 34.1C32.1197 34.1 31.2197 34.02 30.3197 33.84C29.6197 33.72 28.9197 33.5 28.2797 33.2C28.1397 33.12 28.0397 32.98 28.0597 32.82V29.34C28.0597 29.28 28.0797 29.2 28.1397 29.16C28.1997 29.12 28.2597 29.14 28.3197 29.18C29.0997 29.64 29.9197 29.96 30.7997 30.16C31.5597 30.36 32.3597 30.46 33.1597 30.46C33.9197 30.46 34.4597 30.36 34.8197 30.18C35.1397 30.04 35.3597 29.7 35.3597 29.34C35.3597 29.06 35.1997 28.8 34.8797 28.54C34.5597 28.28 33.8997 27.98 32.9197 27.6C31.8997 27.24 30.9597 26.76 30.0797 26.16C29.4597 25.72 28.9397 25.14 28.5597 24.46C28.2397 23.82 28.0797 23.12 28.0997 22.42C28.0997 21.56 28.3397 20.74 28.7797 20C29.2797 19.2 30.0197 18.56 30.8797 18.16C31.8197 17.68 32.9997 17.46 34.4197 17.46C35.2397 17.46 36.0797 17.52 36.8997 17.64C37.4997 17.72 38.0797 17.88 38.6197 18.1C38.6997 18.12 38.7797 18.2 38.8197 18.28C38.8397 18.36 38.8597 18.44 38.8597 18.52V21.78C38.8597 21.86 38.8197 21.94 38.7597 21.98C38.5797 22.02 38.4797 22.02 38.3997 21.98Z" fill="#31A8FF"/>
</g>
<defs>
<clipPath id="clip0_458_1679">
<rect width="48" height="46.8" fill="white" transform="translate(0 0.600098)"/>
</clipPath>
</defs>
</svg>
