<svg width="48" height="48" viewBox="0 0 48 48" fill="none" xmlns="http://www.w3.org/2000/svg">
<g clip-path="url(#clip0_458_1711)">
<path d="M8.5 0.600098H39.5C44.2 0.600098 48 4.4001 48 9.1001V38.9001C48 43.6001 44.2 47.4001 39.5 47.4001H8.5C3.8 47.4001 0 43.6001 0 38.9001V9.1001C0 4.4001 3.8 0.600098 8.5 0.600098Z" fill="#00005B"/>
<path d="M11.3999 33.4002V12.8002C11.3999 12.6602 11.4599 12.5802 11.5999 12.5802C11.9399 12.5802 12.2599 12.5802 12.7199 12.5602C13.1999 12.5402 13.6999 12.5402 14.2399 12.5202C14.7799 12.5002 15.3599 12.5002 15.9799 12.4802C16.5999 12.4602 17.1999 12.4602 17.7999 12.4602C19.4399 12.4602 20.7999 12.6602 21.9199 13.0802C22.9199 13.4202 23.8399 13.9802 24.5999 14.7202C25.2399 15.3602 25.7399 16.1402 26.0599 17.0002C26.3599 17.8402 26.5199 18.7002 26.5199 19.6002C26.5199 21.3202 26.1199 22.7402 25.3199 23.8602C24.5199 24.9802 23.3999 25.8202 22.0999 26.3002C20.7399 26.8002 19.2399 26.9802 17.5999 26.9802C17.1199 26.9802 16.7999 26.9802 16.5999 26.9602C16.3999 26.9402 16.1199 26.9402 15.7399 26.9402V33.3602C15.7599 33.5002 15.6599 33.6202 15.5199 33.6402H15.4399H11.6399C11.4799 33.6402 11.3999 33.5602 11.3999 33.3802V33.4002ZM15.7599 16.4602V23.1802C16.0399 23.2002 16.2999 23.2202 16.5399 23.2202H17.5999C18.3799 23.2202 19.1599 23.1002 19.8999 22.8602C20.5399 22.6802 21.0999 22.3002 21.5399 21.8002C21.9599 21.3002 22.1599 20.6202 22.1599 19.7402C22.1799 19.1202 22.0199 18.5002 21.6999 17.9602C21.3599 17.4402 20.8799 17.0402 20.2999 16.8202C19.5599 16.5202 18.7599 16.4002 17.9399 16.4202C17.4199 16.4202 16.9599 16.4202 16.5799 16.4402C16.1799 16.4202 15.8999 16.4402 15.7599 16.4602V16.4602Z" fill="#9999FF"/>
<path d="M29.4001 17.6402H32.9001C33.1001 17.6402 33.2601 17.7802 33.3201 17.9602C33.3801 18.1202 33.4201 18.2802 33.4401 18.4602C33.4801 18.6602 33.5201 18.8802 33.5401 19.0802C33.5601 19.3002 33.5801 19.5402 33.5801 19.8002C34.1801 19.1002 34.9001 18.5202 35.7201 18.0802C36.6401 17.5602 37.7001 17.3002 38.7601 17.3002C38.9001 17.2802 39.0201 17.3802 39.0401 17.5202V17.6002V21.5002C39.0401 21.6602 38.9401 21.7202 38.7201 21.7202C38.0001 21.7002 37.2601 21.7602 36.5601 21.9202C35.9801 22.0402 35.4201 22.2202 34.8801 22.4602C34.5001 22.6402 34.1401 22.8802 33.8601 23.2002V33.4002C33.8601 33.6002 33.7801 33.6802 33.6001 33.6802H29.6601C29.5001 33.7002 29.3601 33.6002 29.3401 33.4402V33.3602V22.2802C29.3401 21.8002 29.3401 21.3002 29.3201 20.7802C29.3001 20.2602 29.3001 19.7402 29.2801 19.2202C29.2801 18.7602 29.2401 18.3202 29.2001 17.8602C29.1801 17.7602 29.2401 17.6602 29.3401 17.6402C29.3401 17.6202 29.3801 17.6202 29.4001 17.6402V17.6402Z" fill="#9999FF"/>
</g>
<defs>
<clipPath id="clip0_458_1711">
<rect width="48" height="46.8" fill="white" transform="translate(0 0.600098)"/>
</clipPath>
</defs>
</svg>
