<svg width="48" height="48" viewBox="0 0 48 48" fill="none" xmlns="http://www.w3.org/2000/svg">
<g clip-path="url(#clip0_459_1726)">
<path d="M33.259 32.9499C35.0303 32.7666 36.3742 31.2396 36.313 29.4069C36.2521 27.5745 34.7249 26.1084 32.8925 26.1084H32.7704C30.8766 26.1696 29.4108 27.7577 29.4719 29.6512C29.533 30.5676 29.8994 31.3616 30.4491 31.9114C28.3724 36.0041 25.1961 38.9972 20.4317 41.5016C17.1944 43.212 13.8349 43.8229 10.4755 43.3954C7.7267 43.0288 5.58882 41.8073 4.24482 39.7913C2.29032 36.7982 2.10713 33.5606 3.75638 30.3232C4.91701 28.002 6.74926 26.2916 7.90989 25.4364C7.66558 24.6424 7.29902 23.2986 7.11583 22.3213C-1.74113 28.7351 -0.824817 37.4091 1.86281 41.5016C3.87844 44.556 7.97102 46.4496 12.4911 46.4496C13.7127 46.4496 14.9342 46.3273 16.156 46.0221C23.9746 44.4949 29.8996 39.8524 33.259 32.9499V32.9499ZM44.0095 25.3755C39.3672 19.9389 32.5261 16.9459 24.7075 16.9459H23.7302C23.1805 15.8464 22.0199 15.1132 20.7372 15.1132H20.6149C18.7215 15.1744 17.2557 16.7625 17.3166 18.6562C17.3777 20.4887 18.9047 21.9548 20.7372 21.9548H20.8592C22.2031 21.8936 23.3637 21.0384 23.8523 19.8778H24.9518C29.5941 19.8778 33.992 21.2216 37.9625 23.8483C41.0165 25.8641 43.2155 28.4908 44.437 31.6671C45.4754 34.2326 45.4143 36.7371 44.3148 38.8751C42.6046 42.1125 39.7338 43.884 35.9466 43.884C33.5033 43.884 31.1823 43.1509 29.9605 42.6011C29.2887 43.212 28.0669 44.1892 27.2118 44.8003C29.8384 46.0219 32.5261 46.6939 35.0915 46.6939C40.9553 46.6939 45.2922 43.4563 46.9415 40.2189C48.7128 36.6759 48.5906 30.5676 44.0095 25.3755V25.3755ZM12.9797 33.9881C13.0408 35.8208 14.5678 37.2866 16.4003 37.2866H16.5225C18.4161 37.2257 19.882 35.6374 19.8209 33.7438C19.7599 31.9112 18.2327 30.4453 16.4003 30.4453H16.2782C16.156 30.4453 15.9726 30.4453 15.8507 30.5062C13.3463 26.3526 12.3079 21.8325 12.6745 16.9457C12.9186 13.2806 14.1403 10.1042 16.2782 7.4775C18.0495 5.21738 21.4701 4.11788 23.7914 4.05694C30.2659 3.93469 33.0145 11.9977 33.1979 15.2353C33.992 15.4185 35.3358 15.8462 36.2521 16.1516C35.519 6.25612 29.4108 1.125 23.5471 1.125C18.0495 1.125 12.9797 5.0955 10.9639 10.9596C8.15421 18.7783 9.98665 26.2916 13.4072 32.2168C13.102 32.6443 12.9186 33.3163 12.9797 33.9883V33.9881Z" fill="#764ABC"/>
</g>
<defs>
<clipPath id="clip0_459_1726">
<rect width="48" height="45.7536" fill="white" transform="translate(0 1.12305)"/>
</clipPath>
</defs>
</svg>
